<svg xmlns="http://www.w3.org/2000/svg" viewBox="0 0 60.25 90"><g id="Layer_2" data-name="Layer 2"><g id="Layer_1-2" data-name="Layer 1"><path d="M46.39,55c.47-3.18.67-5.28.67-5.28C49.71,10.16,30.9.5,30.1,0c-.8.49-19.61,10.16-17,49.76,0,0,.2,2.11.68,5.31C-6,69.36,1.32,90,1.32,90,5.78,81.41,12,77.35,16.47,75.44l-1.14-8.93,3.27,8.14h0a36.15,36.15,0,0,0,1.59,3.56.55.55,0,0,0,.09.14c1.61,3,5.41,5.08,9.83,5.08s8.26-2.12,9.86-5.12a.75.75,0,0,0,.07-.12c.56-1.12,1.07-2.32,1.55-3.56h0l3.26-8.12-1.09,8.93c4.5,1.91,10.69,6,15.15,14.56C58.92,90,66.26,69.34,46.39,55ZM30.12,34.94A6.91,6.91,0,1,1,37,28,6.9,6.9,0,0,1,30.12,34.94Z"/></g></g></svg>